<svg xmlns="http://www.w3.org/2000/svg" width="39" height="35" fill="#fff" xmlns:v="https://vecta.io/nano"><path d="M28.358 20.504l-3.131 9.193h-1.893l3.945-10.606h1.209l-.13 1.413zm2.62 9.193l-3.139-9.193-.137-1.413h1.217l3.959 10.606h-1.9zm-.151-3.934v1.45h-5.701v-1.45h5.701zM9.198 8.392l.9.38c.26.101.49.151.688.151.238 0 .443-.044.615-.131s.311-.177.404-.269V6.569h-1.674V5.447h4.718v1.121h-1.581v7.219h-1.462V9.742a2.95 2.95 0 0 1-.476.131 2.84 2.84 0 0 1-.463.039h-.119a.82.82 0 0 1-.113-.007 2.74 2.74 0 0 1 .06.348l.026.374c0 .275-.053.551-.159.826a2.15 2.15 0 0 1-.483.734c-.212.214-.479.389-.801.524s-.697.203-1.125.203a3.21 3.21 0 0 1-1.039-.164c-.318-.109-.611-.254-.88-.433a3.95 3.95 0 0 1-.728-.63 6.1 6.1 0 0 1-.576-.734c-.168-.253-.302-.516-.417-.774a5.97 5.97 0 0 1-.271-.721l1.184-.708a12.18 12.18 0 0 0 .549 1.239 5.88 5.88 0 0 0 .635.977c.229.271.472.483.728.636a1.63 1.63 0 0 0 .82.223 1 1 0 0 0 .483-.111 1 1 0 0 0 .337-.302 1.33 1.33 0 0 0 .205-.42c.044-.157.066-.315.066-.472 0-.267-.046-.492-.139-.675a1.2 1.2 0 0 0-.364-.439 1.4 1.4 0 0 0-.503-.236 2.31 2.31 0 0 0-.569-.072c-.15 0-.417.033-.801.098l-.245-.97a4.33 4.33 0 0 0 .569-.098 2.7 2.7 0 0 0 .562-.21c.172-.088.322-.195.437-.321s.172-.284.172-.459c0-.14-.022-.256-.066-.348s-.09-.173-.152-.23a.58.58 0 0 0-.192-.131.49.49 0 0 0-.179-.039c-.075 0-.157.011-.245.033a.78.78 0 0 0-.278.138c-.102.075-.203.175-.318.315s-.229.33-.357.57l-1.237-.57a3.37 3.37 0 0 1 .311-.511c.132-.184.296-.354.49-.511a2.59 2.59 0 0 1 .688-.393c.265-.104.567-.157.906-.157a2.6 2.6 0 0 1 .781.118 1.9 1.9 0 0 1 .675.348 1.68 1.68 0 0 1 .463.57c.119.227.179.492.179.793a1.47 1.47 0 0 1-.165.695 1.79 1.79 0 0 1-.476.564zM34.125 14h-12.25a4.38 4.38 0 0 0-4.375 4.375v12.25A4.38 4.38 0 0 0 21.875 35h12.25a4.38 4.38 0 0 0 4.375-4.375v-12.25A4.38 4.38 0 0 0 34.125 14zm2.625 16.625a2.63 2.63 0 0 1-2.625 2.625h-12.25a2.63 2.63 0 0 1-2.625-2.625v-12.25a2.63 2.63 0 0 1 2.625-2.625h12.25a2.63 2.63 0 0 1 2.625 2.625v12.25zm-17.5-26.25v7.219c0 .483.392.875.875.875s.875-.392.875-.875V4.375A4.38 4.38 0 0 0 16.625 0H4.375a4.38 4.38 0 0 0-3.092 1.283A4.38 4.38 0 0 0 0 4.375v12.25A4.38 4.38 0 0 0 4.375 21h10.5c.483 0 .875-.392.875-.875s-.392-.875-.875-.875h-10.5a2.63 2.63 0 0 1-2.625-2.625V4.375A2.63 2.63 0 0 1 4.375 1.75h12.25a2.63 2.63 0 0 1 2.625 2.625zm7.256 3.244c.163.167.387.262.621.263s.458-.091.623-.256.257-.39.256-.624a.87.87 0 0 0-.263-.62l-.256-.256H31.5h0c.483.001.874.392.875.875v2.625c0 .483.392.875.875.875s.875-.392.875-.875V7A2.63 2.63 0 0 0 31.5 4.375h-4.013l.257-.256h0c.341-.342.341-.896 0-1.238s-.896-.342-1.238 0l-1.75 1.75c-.342.342-.342.896 0 1.238l1.75 1.75z"/></svg>